# xmcd
#
# Track frame offsets: 
#        150
#        18990
#        44157
#        58737
#        79260
#        100097
#        117500
#        135797
#        159215
#
# Disc length: 2417 seconds
#
# Revision: 2
# Processed by: cddbd v1.5.2PL0 Copyright (c) Steve Scherf et al.
# Submitted via: ExactAudioCopy v0.95b4
#
DISCID=6d096f09
DTITLE=Baxter Dury - Len Parrot's Memorial Lift
DYEAR=2002
DGENRE=Indie
TTITLE0=Beneath The Underdog
TTITLE1=Oscar Brown
TTITLE2=Lucifer's Grain
TTITLE3=Fungus Hedge
TTITLE4=Auntie Jane
TTITLE5=Gingham Smalls 2
TTITLE6=Bachelor
TTITLE7=Len Parrot's Memorial Lift
TTITLE8=Boneyard Dogs
EXTD=
EXTT0=
EXTT1=
EXTT2=
EXTT3=
EXTT4=
EXTT5=
EXTT6=
EXTT7=
EXTT8=
PLAYORDER=
